<?xml version="1.0" encoding="UTF-8"?>
<svg width="24" height="24" viewBox="0 0 24 24" fill="none" xmlns="http://www.w3.org/2000/svg">
  <path d="M17.0425 12.3475C17.0288 10.1595 18.8175 9.0615 18.8925 9.015C17.745 7.2675 16.0163 7.017 15.375 6.9975C13.9163 6.84 12.5025 7.8825 11.7563 7.8825C11.0025 7.8825 9.82125 7.0125 8.5875 7.041C6.9825 7.0695 5.4825 8.0025 4.6575 9.4725C2.9475 12.4725 4.2075 16.9125 5.8575 19.0575C6.6825 20.1075 7.6425 21.285 8.91 21.2325C10.1475 21.18 10.62 20.445 12.105 20.445C13.59 20.445 14.0175 21.2325 15.3075 21.2025C16.635 21.18 17.4675 20.13 18.2775 19.0725C19.2225 17.865 19.6125 16.6875 19.6275 16.635C19.5975 16.6275 17.0575 15.6975 17.0425 12.3475Z" fill="black"/>
  <path d="M15.0075 5.2875C15.6825 4.455 16.1475 3.3225 16.02 2.25C15.0525 2.295 13.8525 2.925 13.1475 3.7575C12.5175 4.4925 11.9625 5.655 12.105 6.6975C13.1775 6.7875 14.3175 6.12 15.0075 5.2875Z" fill="black"/>
</svg> 