<svg width="64" height="44" viewBox="0 0 64 44" fill="none" xmlns="http://www.w3.org/2000/svg">
<g opacity="0.9">
<rect x="5.18555" y="4.48718" width="58.5846" height="48.1231" rx="4.88205" fill="#C9DBDD" fill-opacity="0.3"/>
<path d="M59.9333 48.7744V6.9282M1 32.7333V6.9282M1 35.1744V40.4051M59.9333 6.9282V6.9282C59.9333 3.65415 57.2792 1 54.0051 1H6.9282C3.65415 1 1 3.65415 1 6.9282V6.9282M59.9333 6.9282H1M10.0667 25.4103H29.5949C30.7504 25.4103 31.6872 24.4735 31.6872 23.3179V14.9487C31.6872 13.7932 30.7504 12.8564 29.5949 12.8564H10.0667C8.91112 12.8564 7.97436 13.7932 7.97436 14.9487V23.3179C7.97436 24.4735 8.91112 25.4103 10.0667 25.4103ZM10.0667 41.4513H37.2667C38.4222 41.4513 39.359 40.5145 39.359 39.359V30.9897C39.359 29.8342 38.4222 28.8974 37.2667 28.8974H10.0667C8.91112 28.8974 7.97436 29.8342 7.97436 30.9897V39.359C7.97436 40.5145 8.91112 41.4513 10.0667 41.4513ZM36.5692 25.4103H51.2154C52.3709 25.4103 53.3077 24.4735 53.3077 23.3179V14.9487C53.3077 13.7932 52.3709 12.8564 51.2154 12.8564H36.5692C35.4137 12.8564 34.4769 13.7932 34.4769 14.9487V23.3179C34.4769 24.4735 35.4137 25.4103 36.5692 25.4103ZM44.241 41.4513H51.2154C52.3709 41.4513 53.3077 40.5145 53.3077 39.359V30.9897C53.3077 29.8342 52.3709 28.8974 51.2154 28.8974H44.241C43.0855 28.8974 42.1487 29.8342 42.1487 30.9897V39.359C42.1487 40.5145 43.0855 41.4513 44.241 41.4513Z" stroke="#4D7C0F" stroke-width="1.39487"/>
</g>
</svg>
