<svg width="28" height="28" viewBox="0 0 28 28" fill="none" xmlns="http://www.w3.org/2000/svg">
<path d="M7.00033 11.0833C7.00033 7.53943 9.87317 4.66659 13.417 4.66659C16.5562 4.66659 19.171 6.92196 19.7252 9.90104C19.8029 10.3188 20.1016 10.6613 20.5049 10.795C22.8275 11.5653 24.5003 13.7554 24.5003 16.3333C24.5003 19.5549 21.8887 22.1666 18.667 22.1666C18.0227 22.1666 17.5003 22.6889 17.5003 23.3333C17.5003 23.9776 18.0227 24.4999 18.667 24.4999C23.1773 24.4999 26.8337 20.8436 26.8337 16.3333C26.8337 12.9587 24.7876 10.0647 21.871 8.81942C20.873 5.08425 17.4674 2.33325 13.417 2.33325C8.5845 2.33325 4.66699 6.25076 4.66699 11.0833C4.66699 11.2002 4.66929 11.3168 4.67386 11.4327C2.57922 12.6412 1.16699 14.9046 1.16699 17.4999C1.16699 21.3659 4.301 24.4999 8.16699 24.4999C8.81132 24.4999 9.33366 23.9776 9.33366 23.3333C9.33366 22.6889 8.81132 22.1666 8.16699 22.1666C5.58966 22.1666 3.50033 20.0772 3.50033 17.4999C3.50033 15.5664 4.67653 13.9048 6.35709 13.1969C6.8434 12.992 7.13165 12.4862 7.06005 11.9634C7.02072 11.6762 7.00033 11.3824 7.00033 11.0833Z" fill="#06545E"/>
<path d="M13.2252 16.6279C13.6673 16.235 14.3334 16.235 14.7754 16.6279L16.5254 18.1835C17.007 18.6116 17.0504 19.349 16.6223 19.8306C16.2478 20.2519 15.6366 20.3378 15.167 20.0661V25.6666C15.167 26.3109 14.6447 26.8333 14.0003 26.8333C13.356 26.8333 12.8337 26.3109 12.8337 25.6666V20.0661C12.3641 20.3378 11.7528 20.2519 11.3783 19.8306C10.9503 19.349 10.9937 18.6116 11.4752 18.1835L13.2252 16.6279Z" fill="#06545E"/>
</svg>
