<svg width="64" height="44" viewBox="0 0 64 44" fill="none" xmlns="http://www.w3.org/2000/svg">
<g opacity="0.9">
<rect x="5.18555" y="4.48718" width="58.5846" height="48.1231" rx="4.88205" fill="#C9DBDD" fill-opacity="0.3"/>
<path d="M59.9333 48.7744V6.9282M1 32.7333V6.9282M1 35.1744V40.4051M59.9333 6.9282V6.9282C59.9333 3.65415 57.2792 1 54.0051 1H6.9282C3.65415 1 1 3.65415 1 6.9282V6.9282M59.9333 6.9282H1M7.97436 24.0154H26.1077C27.6484 24.0154 28.8974 22.7664 28.8974 21.2256V15.6462C28.8974 14.1054 27.6484 12.8564 26.1077 12.8564H7.97436C6.43363 12.8564 5.18462 14.1054 5.18462 15.6462V21.2256C5.18462 22.7664 6.43363 24.0154 7.97436 24.0154ZM33.7795 17.041H53.3077C54.4632 17.041 55.4 16.1043 55.4 14.9487C55.4 13.7932 54.4632 12.8564 53.3077 12.8564H33.7795C32.6239 12.8564 31.6872 13.7932 31.6872 14.9487C31.6872 16.1043 32.6239 17.041 33.7795 17.041ZM33.7795 24.0154H47.7282C48.8838 24.0154 49.8205 23.0786 49.8205 21.9231C49.8205 20.7675 48.8838 19.8308 47.7282 19.8308H33.7795C32.6239 19.8308 31.6872 20.7675 31.6872 21.9231C31.6872 23.0786 32.6239 24.0154 33.7795 24.0154ZM7.97436 41.4513H26.1077C27.6484 41.4513 28.8974 40.2023 28.8974 38.6615V30.2923C28.8974 28.7516 27.6484 27.5026 26.1077 27.5026H7.97436C6.43363 27.5026 5.18462 28.7516 5.18462 30.2923V38.6615C5.18462 40.2023 6.43363 41.4513 7.97436 41.4513Z" stroke="#A21CAF" stroke-width="1.39487"/>
</g>
</svg>
