<svg width="192" height="32" viewBox="0 0 192 32" fill="none" xmlns="http://www.w3.org/2000/svg">
<path fill-rule="evenodd" clip-rule="evenodd" d="M4.17159 12.7702C1.36299 13.345 -0.56047 10.0134 1.34157 7.8685C2.37514 6.70293 2.79962 5.11875 2.4873 3.59254C1.91257 0.78395 5.24409 -1.13951 7.38904 0.762524C8.55462 1.7961 10.1388 2.22058 11.665 1.90826C14.4736 1.33353 16.3971 4.66505 14.495 6.81C13.4614 7.97557 13.037 9.55975 13.3493 11.086C13.924 13.8946 10.5925 15.818 8.44754 13.916C7.28197 12.8824 5.69779 12.4579 4.17159 12.7702ZM2.83797 9.19544C2.21114 9.90232 2.84503 11.0003 3.77062 10.8108C5.91356 10.3723 8.1379 10.9683 9.77448 12.4196C10.4814 13.0464 11.5793 12.4125 11.3899 11.4869C10.9514 9.34398 11.5474 7.11964 12.9986 5.48306C13.6254 4.77618 12.9916 3.67825 12.066 3.86766C9.92302 4.30618 7.69868 3.71017 6.0621 2.25893C5.35522 1.6321 4.25729 2.26599 4.4467 3.19158C4.88522 5.33452 4.28921 7.55886 2.83797 9.19544Z" fill="#06545E"/>
<path fill-rule="evenodd" clip-rule="evenodd" d="M2.56901 23.1568C0.560597 23.5678 -0.814859 21.1854 0.545277 19.6516C1.04639 19.0865 1.25219 18.3184 1.10077 17.5784C0.689781 15.57 3.07214 14.1946 4.60598 15.5547C5.17109 16.0558 5.93916 16.2616 6.67912 16.1102C8.68753 15.6992 10.063 18.0816 8.70285 19.6154C8.20174 20.1805 7.99593 20.9486 8.14736 21.6885C8.55835 23.6969 6.17599 25.0724 4.64215 23.7123C4.07704 23.2112 3.30897 23.0054 2.56901 23.1568ZM2.08579 21.1933C2.09637 21.1985 2.11815 21.2076 2.16805 21.1974C3.52474 20.9198 4.93297 21.2971 5.96909 22.2159C6.0072 22.2497 6.03061 22.2526 6.04234 22.2535C6.06153 22.2549 6.09151 22.2503 6.12406 22.2316C6.15662 22.2128 6.17552 22.189 6.18392 22.1718C6.18906 22.1612 6.19817 22.1394 6.18796 22.0895C5.91033 20.7328 6.28767 19.3246 7.20645 18.2885C7.24024 18.2503 7.24323 18.2269 7.24407 18.2152C7.24544 18.196 7.24093 18.166 7.22214 18.1335C7.20335 18.1009 7.17963 18.082 7.16233 18.0736C7.15175 18.0685 7.12998 18.0594 7.08008 18.0696C5.72339 18.3472 4.31516 17.9699 3.27904 17.0511C3.24093 17.0173 3.21752 17.0143 3.20578 17.0135C3.1866 17.0121 3.15662 17.0166 3.12406 17.0354C3.09151 17.0542 3.07261 17.0779 3.06421 17.0952C3.05907 17.1058 3.04996 17.1276 3.06017 17.1775C3.3378 18.5342 2.96046 19.9424 2.04168 20.9785C2.00789 21.0166 2.0049 21.04 2.00406 21.0518C2.00268 21.0709 2.00719 21.1009 2.02599 21.1335C2.04478 21.166 2.0685 21.1849 2.08579 21.1933Z" fill="#06545E"/>
<path d="M15.428 19.0449C15.428 18.4926 15.8757 18.0449 16.428 18.0449H21.428C21.9803 18.0449 22.428 18.4926 22.428 19.0449C22.428 19.5972 21.9803 20.0449 21.428 20.0449H16.428C15.8757 20.0449 15.428 19.5972 15.428 19.0449Z" fill="#06545E"/>
<path d="M16.428 22.0449C15.8757 22.0449 15.428 22.4926 15.428 23.0449C15.428 23.5972 15.8757 24.0449 16.428 24.0449H25.428C25.9803 24.0449 26.428 23.5972 26.428 23.0449C26.428 22.4926 25.9803 22.0449 25.428 22.0449H16.428Z" fill="#06545E"/>
<path fill-rule="evenodd" clip-rule="evenodd" d="M21.428 11.0449C15.9051 11.0449 11.428 15.5221 11.428 21.0449C11.428 21.8772 11.5299 22.6871 11.7224 23.4622L11.9779 25.5062C11.9794 25.5182 11.9791 25.5304 11.9771 25.5423L11.6342 27.5996C11.4357 28.7908 12.2685 29.9078 13.4667 30.0576L19.0107 30.7505C19.7858 30.943 20.5957 31.0449 21.428 31.0449C26.9508 31.0449 31.428 26.5678 31.428 21.0449C31.428 15.5221 26.9508 11.0449 21.428 11.0449ZM13.428 21.0449C13.428 16.6266 17.0097 13.0449 21.428 13.0449C25.8463 13.0449 29.428 16.6266 29.428 21.0449C29.428 25.4632 25.8463 29.0449 21.428 29.0449C20.7414 29.0449 20.0765 28.9587 19.4427 28.7969L19.3818 28.7814L13.7148 28.073C13.6443 28.0642 13.5953 27.9985 13.607 27.9284L13.9499 25.8711C13.9837 25.6685 13.9879 25.462 13.9624 25.2582L13.6915 23.0911L13.676 23.0302C13.5142 22.3964 13.428 21.7315 13.428 21.0449Z" fill="#06545E"/>
<path d="M44.7561 27.0425C43.7854 27.2451 42.8254 27.3251 41.8761 27.2825C40.9374 27.2398 40.0947 27.0371 39.3481 26.6745C38.6121 26.3118 38.0521 25.7465 37.6681 24.9785C37.3587 24.3385 37.1881 23.6931 37.1561 23.0425C37.1347 22.3811 37.1241 21.6291 37.1241 20.7865V4.96245H39.4601V20.6905C39.4601 21.4158 39.4654 22.0238 39.4761 22.5145C39.4974 22.9945 39.6094 23.4211 39.8121 23.7945C40.1961 24.5091 40.8041 24.9358 41.6361 25.0745C42.4787 25.2131 43.5187 25.1811 44.7561 24.9785V27.0425ZM33.4281 11.7785V9.76245H44.7561V11.7785H33.4281Z" fill="#06545E"/>
<path d="M54.2076 27.5225C52.5222 27.5225 51.0609 27.1491 49.8236 26.4025C48.5969 25.6558 47.6422 24.6051 46.9596 23.2505C46.2769 21.8958 45.9356 20.3065 45.9356 18.4825C45.9356 16.5945 46.2716 14.9625 46.9436 13.5865C47.6156 12.2105 48.5596 11.1491 49.7756 10.4025C51.0022 9.65579 52.4476 9.28245 54.1116 9.28245C55.8182 9.28245 57.2742 9.67712 58.4796 10.4665C59.6849 11.2451 60.5969 12.3651 61.2156 13.8265C61.8342 15.2878 62.1169 17.0318 62.0636 19.0585H59.6636V18.2265C59.6209 15.9865 59.1356 14.2958 58.2076 13.1545C57.2902 12.0131 55.9462 11.4425 54.1756 11.4425C52.3196 11.4425 50.8956 12.0451 49.9036 13.2505C48.9222 14.4558 48.4316 16.1731 48.4316 18.4025C48.4316 20.5785 48.9222 22.2691 49.9036 23.4745C50.8956 24.6691 52.2982 25.2665 54.1116 25.2665C55.3489 25.2665 56.4262 24.9838 57.3436 24.4185C58.2716 23.8425 59.0022 23.0158 59.5356 21.9385L61.7276 22.7865C61.0449 24.2905 60.0369 25.4585 58.7036 26.2905C57.3809 27.1118 55.8822 27.5225 54.2076 27.5225ZM47.5996 19.0585V17.0905H60.7996V19.0585H47.5996Z" fill="#06545E"/>
<path d="M71.4223 27.5065C69.3957 27.5065 67.7263 27.0691 66.4143 26.1945C65.113 25.3198 64.313 24.1038 64.0143 22.5465L66.4143 22.1465C66.6703 23.1278 67.2516 23.9118 68.1583 24.4985C69.0756 25.0745 70.2063 25.3625 71.5503 25.3625C72.8623 25.3625 73.897 25.0905 74.6543 24.5465C75.4116 23.9918 75.7903 23.2398 75.7903 22.2905C75.7903 21.7571 75.6676 21.3251 75.4223 20.9945C75.1877 20.6531 74.7023 20.3385 73.9663 20.0505C73.2303 19.7625 72.1316 19.4211 70.6703 19.0265C69.1023 18.5998 67.8756 18.1731 66.9903 17.7465C66.105 17.3198 65.4756 16.8291 65.1023 16.2745C64.729 15.7091 64.5423 15.0211 64.5423 14.2105C64.5423 13.2291 64.8196 12.3705 65.3743 11.6345C65.929 10.8878 66.697 10.3118 67.6783 9.90645C68.6596 9.49045 69.801 9.28245 71.1023 9.28245C72.4036 9.28245 73.5663 9.49579 74.5903 9.92245C75.625 10.3385 76.457 10.9251 77.0863 11.6825C77.7156 12.4398 78.089 13.3198 78.2063 14.3225L75.8063 14.7545C75.6463 13.7411 75.1396 12.9411 74.2863 12.3545C73.4436 11.7571 72.3716 11.4478 71.0703 11.4265C69.8436 11.3945 68.8463 11.6291 68.0783 12.1305C67.3103 12.6211 66.9263 13.2771 66.9263 14.0985C66.9263 14.5571 67.065 14.9518 67.3423 15.2825C67.6197 15.6025 68.121 15.9065 68.8463 16.1945C69.5823 16.4825 70.6276 16.7971 71.9823 17.1385C73.5716 17.5438 74.8196 17.9705 75.7263 18.4185C76.633 18.8665 77.2783 19.3945 77.6623 20.0025C78.0463 20.6105 78.2383 21.3625 78.2383 22.2585C78.2383 23.8905 77.6303 25.1758 76.4143 26.1145C75.209 27.0425 73.545 27.5065 71.4223 27.5065Z" fill="#06545E"/>
<path d="M90.5548 27.0425C89.5841 27.2451 88.6242 27.3251 87.6748 27.2825C86.7362 27.2398 85.8935 27.0371 85.1468 26.6745C84.4108 26.3118 83.8508 25.7465 83.4668 24.9785C83.1575 24.3385 82.9868 23.6931 82.9548 23.0425C82.9335 22.3811 82.9228 21.6291 82.9228 20.7865V4.96245H85.2588V20.6905C85.2588 21.4158 85.2641 22.0238 85.2748 22.5145C85.2961 22.9945 85.4081 23.4211 85.6108 23.7945C85.9948 24.5091 86.6028 24.9358 87.4348 25.0745C88.2775 25.2131 89.3175 25.1811 90.5548 24.9785V27.0425ZM79.2268 11.7785V9.76245H90.5548V11.7785H79.2268Z" fill="#06545E"/>
<path d="M99.8623 27.5225C98.1236 27.5225 96.6516 27.1331 95.4463 26.3545C94.241 25.5758 93.3236 24.5038 92.6943 23.1385C92.0756 21.7625 91.7556 20.1838 91.7343 18.4025C91.7556 16.5891 92.0863 14.9998 92.7263 13.6345C93.3663 12.2585 94.289 11.1918 95.4943 10.4345C96.6996 9.66645 98.161 9.28245 99.8783 9.28245C101.628 9.28245 103.148 9.70912 104.438 10.5625C105.74 11.4158 106.63 12.5838 107.11 14.0665L104.806 14.8025C104.401 13.7678 103.756 12.9678 102.87 12.4025C101.996 11.8265 100.993 11.5385 99.8623 11.5385C98.593 11.5385 97.5423 11.8318 96.7103 12.4185C95.8783 12.9945 95.2596 13.7998 94.8543 14.8345C94.449 15.8691 94.241 17.0585 94.2303 18.4025C94.2516 20.4718 94.7316 22.1358 95.6703 23.3945C96.609 24.6425 98.0063 25.2665 99.8623 25.2665C101.036 25.2665 102.033 24.9998 102.854 24.4665C103.686 23.9225 104.316 23.1331 104.742 22.0985L107.11 22.8025C106.47 24.3385 105.532 25.5118 104.294 26.3225C103.057 27.1225 101.58 27.5225 99.8623 27.5225Z" fill="#06545E"/>
<path d="M109.773 27.0425V9.76245H111.885V13.9225L111.469 13.3785C111.661 12.8665 111.912 12.3971 112.221 11.9705C112.53 11.5331 112.866 11.1758 113.229 10.8985C113.677 10.5038 114.2 10.2051 114.797 10.0025C115.394 9.78912 115.997 9.66645 116.605 9.63445C117.213 9.59179 117.768 9.63445 118.269 9.76245V11.9705C117.64 11.8105 116.952 11.7731 116.205 11.8585C115.458 11.9438 114.77 12.2425 114.141 12.7545C113.565 13.2025 113.133 13.7411 112.845 14.3705C112.557 14.9891 112.365 15.6505 112.269 16.3545C112.173 17.0478 112.125 17.7358 112.125 18.4185V27.0425H109.773Z" fill="#06545E"/>
<path d="M124.952 27.5225C123.651 27.5225 122.557 27.2878 121.672 26.8185C120.797 26.3491 120.141 25.7251 119.704 24.9465C119.267 24.1678 119.048 23.3198 119.048 22.4025C119.048 21.4638 119.235 20.6638 119.608 20.0025C119.992 19.3305 120.509 18.7811 121.16 18.3545C121.821 17.9278 122.584 17.6025 123.448 17.3785C124.323 17.1651 125.288 16.9785 126.344 16.8185C127.411 16.6478 128.451 16.5038 129.464 16.3865C130.488 16.2585 131.384 16.1358 132.152 16.0185L131.32 16.5305C131.352 14.8238 131.021 13.5598 130.328 12.7385C129.635 11.9171 128.429 11.5065 126.712 11.5065C125.528 11.5065 124.525 11.7731 123.704 12.3065C122.893 12.8398 122.323 13.6825 121.992 14.8345L119.704 14.1625C120.099 12.6158 120.893 11.4158 122.088 10.5625C123.283 9.70912 124.835 9.28245 126.744 9.28245C128.323 9.28245 129.661 9.58112 130.76 10.1785C131.869 10.7651 132.653 11.6185 133.112 12.7385C133.325 13.2398 133.464 13.7998 133.528 14.4185C133.592 15.0371 133.624 15.6665 133.624 16.3065V27.0425H131.528V22.7065L132.136 22.9625C131.549 24.4451 130.637 25.5758 129.4 26.3545C128.163 27.1331 126.68 27.5225 124.952 27.5225ZM125.224 25.4905C126.323 25.4905 127.283 25.2931 128.104 24.8985C128.925 24.5038 129.587 23.9651 130.088 23.2825C130.589 22.5891 130.915 21.8105 131.064 20.9465C131.192 20.3918 131.261 19.7838 131.272 19.1225C131.283 18.4505 131.288 17.9491 131.288 17.6185L132.184 18.0825C131.384 18.1891 130.515 18.2958 129.576 18.4025C128.648 18.5091 127.731 18.6318 126.824 18.7705C125.928 18.9091 125.117 19.0745 124.392 19.2665C123.901 19.4051 123.427 19.6025 122.968 19.8585C122.509 20.1038 122.131 20.4345 121.832 20.8505C121.544 21.2665 121.4 21.7838 121.4 22.4025C121.4 22.9038 121.523 23.3891 121.768 23.8585C122.024 24.3278 122.429 24.7171 122.984 25.0265C123.549 25.3358 124.296 25.4905 125.224 25.4905Z" fill="#06545E"/>
<path d="M138.861 27.0425V8.48245C138.861 8.03445 138.883 7.59179 138.925 7.15445C138.979 6.71712 139.08 6.30112 139.229 5.90645C139.379 5.50112 139.613 5.12779 139.933 4.78645C140.285 4.40245 140.669 4.12512 141.085 3.95445C141.501 3.77312 141.933 3.65579 142.381 3.60245C142.84 3.54912 143.288 3.52245 143.725 3.52245H145.933V5.50645H143.885C142.989 5.50645 142.317 5.72512 141.869 6.16245C141.432 6.59979 141.213 7.28779 141.213 8.22645V27.0425H138.861ZM135.869 11.7785V9.76245H145.933V11.7785H135.869Z" fill="#06545E"/>
<path d="M157.261 27.0425C156.29 27.2451 155.33 27.3251 154.381 27.2825C153.442 27.2398 152.6 27.0371 151.853 26.6745C151.117 26.3118 150.557 25.7465 150.173 24.9785C149.864 24.3385 149.693 23.6931 149.661 23.0425C149.64 22.3811 149.629 21.6291 149.629 20.7865V4.96245H151.965V20.6905C151.965 21.4158 151.97 22.0238 151.981 22.5145C152.002 22.9945 152.114 23.4211 152.317 23.7945C152.701 24.5091 153.309 24.9358 154.141 25.0745C154.984 25.2131 156.024 25.1811 157.261 24.9785V27.0425ZM145.933 11.7785V9.76245H157.261V11.7785H145.933Z" fill="#06545E"/>
<path d="M176.165 27.3625C174.864 27.3625 173.77 27.1278 172.885 26.6585C172.01 26.1891 171.354 25.5651 170.917 24.7865C170.48 24.0078 170.261 23.1598 170.261 22.2425C170.261 21.3038 170.448 20.5038 170.821 19.8425C171.205 19.1705 171.722 18.6211 172.373 18.1945C173.034 17.7678 173.797 17.4425 174.661 17.2185C175.536 17.0051 176.501 16.8185 177.557 16.6585C178.624 16.4878 179.664 16.3438 180.677 16.2265C181.701 16.0985 182.597 15.9758 183.365 15.8585L182.533 16.3705C182.565 14.6638 182.234 13.3998 181.541 12.5785C180.848 11.7571 179.642 11.3465 177.925 11.3465C176.741 11.3465 175.738 11.6131 174.917 12.1465C174.106 12.6798 173.536 13.5225 173.205 14.6745L170.917 14.0025C171.312 12.4558 172.106 11.2558 173.301 10.4025C174.496 9.54913 176.048 9.12246 177.957 9.12246C179.536 9.12246 180.874 9.42113 181.973 10.0185C183.082 10.6051 183.866 11.4585 184.325 12.5785C184.538 13.0798 184.677 13.6398 184.741 14.2585C184.805 14.8771 184.837 15.5065 184.837 16.1465V26.8825H182.741V22.5465L183.349 22.8025C182.762 24.2851 181.85 25.4158 180.613 26.1945C179.376 26.9731 177.893 27.3625 176.165 27.3625ZM176.437 25.3305C177.536 25.3305 178.496 25.1331 179.317 24.7385C180.138 24.3438 180.8 23.8051 181.301 23.1225C181.802 22.4291 182.128 21.6505 182.277 20.7865C182.405 20.2318 182.474 19.6238 182.485 18.9625C182.496 18.2905 182.501 17.7891 182.501 17.4585L183.397 17.9225C182.597 18.0291 181.728 18.1358 180.789 18.2425C179.861 18.3491 178.944 18.4718 178.037 18.6105C177.141 18.7491 176.33 18.9145 175.605 19.1065C175.114 19.2451 174.64 19.4425 174.181 19.6985C173.722 19.9438 173.344 20.2745 173.045 20.6905C172.757 21.1065 172.613 21.6238 172.613 22.2425C172.613 22.7438 172.736 23.2291 172.981 23.6985C173.237 24.1678 173.642 24.5571 174.197 24.8665C174.762 25.1758 175.509 25.3305 176.437 25.3305Z" fill="#06545E"/>
<path d="M188.682 6.32246V3.68246H191.034V6.32246H188.682ZM188.682 26.8825V9.60246H191.034V26.8825H188.682Z" fill="#06545E"/>
<path d="M166 18.5C166 19.8807 164.881 21 163.5 21C162.119 21 161 19.8807 161 18.5C161 17.1193 162.119 16 163.5 16C164.881 16 166 17.1193 166 18.5Z" fill="#06545E"/>
</svg>
