<svg width="32" height="32" viewBox="0 0 32 32" fill="none" xmlns="http://www.w3.org/2000/svg">
<path fill-rule="evenodd" clip-rule="evenodd" d="M4.17159 12.7702C1.36299 13.345 -0.56047 10.0134 1.34157 7.8685C2.37514 6.70293 2.79962 5.11875 2.4873 3.59254C1.91257 0.78395 5.24409 -1.13951 7.38904 0.762524C8.55462 1.7961 10.1388 2.22058 11.665 1.90826C14.4736 1.33353 16.3971 4.66505 14.495 6.81C13.4614 7.97557 13.037 9.55975 13.3493 11.086C13.924 13.8946 10.5925 15.818 8.44754 13.916C7.28197 12.8824 5.69779 12.4579 4.17159 12.7702ZM2.83797 9.19544C2.21114 9.90232 2.84503 11.0003 3.77062 10.8108C5.91356 10.3723 8.1379 10.9683 9.77448 12.4196C10.4814 13.0464 11.5793 12.4125 11.3899 11.4869C10.9514 9.34398 11.5474 7.11964 12.9986 5.48306C13.6254 4.77618 12.9916 3.67825 12.066 3.86766C9.92302 4.30618 7.69868 3.71017 6.0621 2.25893C5.35522 1.6321 4.25729 2.26599 4.4467 3.19158C4.88522 5.33452 4.28921 7.55886 2.83797 9.19544Z" fill="#06545E"/>
<path fill-rule="evenodd" clip-rule="evenodd" d="M2.56901 23.1568C0.560597 23.5678 -0.814859 21.1854 0.545277 19.6516C1.04639 19.0865 1.25219 18.3184 1.10077 17.5784C0.689781 15.57 3.07214 14.1946 4.60598 15.5547C5.17109 16.0558 5.93916 16.2616 6.67912 16.1102C8.68753 15.6992 10.063 18.0816 8.70285 19.6154C8.20174 20.1805 7.99593 20.9486 8.14736 21.6885C8.55835 23.6969 6.17599 25.0724 4.64215 23.7123C4.07704 23.2112 3.30897 23.0054 2.56901 23.1568ZM2.08579 21.1933C2.09637 21.1985 2.11815 21.2076 2.16805 21.1974C3.52474 20.9198 4.93297 21.2971 5.96909 22.2159C6.0072 22.2497 6.03061 22.2526 6.04234 22.2535C6.06153 22.2549 6.09151 22.2503 6.12406 22.2316C6.15662 22.2128 6.17552 22.189 6.18392 22.1718C6.18906 22.1612 6.19817 22.1394 6.18796 22.0895C5.91033 20.7328 6.28767 19.3246 7.20645 18.2885C7.24024 18.2503 7.24323 18.2269 7.24407 18.2152C7.24544 18.196 7.24093 18.166 7.22214 18.1335C7.20335 18.1009 7.17963 18.082 7.16233 18.0736C7.15175 18.0685 7.12998 18.0594 7.08008 18.0696C5.72339 18.3472 4.31516 17.9699 3.27904 17.0511C3.24093 17.0173 3.21752 17.0143 3.20578 17.0135C3.1866 17.0121 3.15662 17.0166 3.12406 17.0354C3.09151 17.0542 3.07261 17.0779 3.06421 17.0952C3.05907 17.1058 3.04996 17.1276 3.06017 17.1775C3.3378 18.5342 2.96046 19.9424 2.04168 20.9785C2.00789 21.0166 2.0049 21.04 2.00406 21.0518C2.00268 21.0709 2.00719 21.1009 2.02599 21.1335C2.04478 21.166 2.0685 21.1849 2.08579 21.1933Z" fill="#06545E"/>
<path d="M15.428 19.0449C15.428 18.4926 15.8757 18.0449 16.428 18.0449H21.428C21.9803 18.0449 22.428 18.4926 22.428 19.0449C22.428 19.5972 21.9803 20.0449 21.428 20.0449H16.428C15.8757 20.0449 15.428 19.5972 15.428 19.0449Z" fill="#06545E"/>
<path d="M16.428 22.0449C15.8757 22.0449 15.428 22.4926 15.428 23.0449C15.428 23.5972 15.8757 24.0449 16.428 24.0449H25.428C25.9803 24.0449 26.428 23.5972 26.428 23.0449C26.428 22.4926 25.9803 22.0449 25.428 22.0449H16.428Z" fill="#06545E"/>
<path fill-rule="evenodd" clip-rule="evenodd" d="M21.428 11.0449C15.9051 11.0449 11.428 15.5221 11.428 21.0449C11.428 21.8772 11.5299 22.6871 11.7224 23.4622L11.9779 25.5062C11.9794 25.5182 11.9791 25.5304 11.9771 25.5423L11.6342 27.5996C11.4357 28.7908 12.2685 29.9078 13.4667 30.0576L19.0107 30.7505C19.7858 30.943 20.5957 31.0449 21.428 31.0449C26.9508 31.0449 31.428 26.5678 31.428 21.0449C31.428 15.5221 26.9508 11.0449 21.428 11.0449ZM13.428 21.0449C13.428 16.6266 17.0097 13.0449 21.428 13.0449C25.8463 13.0449 29.428 16.6266 29.428 21.0449C29.428 25.4632 25.8463 29.0449 21.428 29.0449C20.7414 29.0449 20.0765 28.9587 19.4427 28.7969L19.3818 28.7814L13.7148 28.073C13.6443 28.0642 13.5953 27.9985 13.607 27.9284L13.9499 25.8711C13.9837 25.6685 13.9879 25.462 13.9624 25.2582L13.6915 23.0911L13.676 23.0302C13.5142 22.3964 13.428 21.7315 13.428 21.0449Z" fill="#06545E"/>
</svg>
