<svg width="150" height="150" viewBox="0 0 150 150" fill="none" xmlns="http://www.w3.org/2000/svg">
<path d="M75 128.201C103.319 128.201 126.276 119.195 126.276 108.086C126.276 96.9766 103.319 87.9707 75 87.9707C46.6809 87.9707 23.7236 96.9766 23.7236 108.086C23.7236 119.195 46.6809 128.201 75 128.201Z" fill="#F9FAFB"/>
<path d="M54.4528 47.907L52.4306 60.5875H45.8584L47.8806 47.907H54.4528Z" fill="#F7F9FC"/>
<path d="M87.1348 61.011C87.5723 61.011 87.8723 61.3527 87.8043 61.7749C87.7376 62.1971 87.3293 62.5402 86.8904 62.5402H61.2029C60.7654 62.5402 60.464 62.1971 60.5321 61.7749C60.5987 61.3527 61.0084 61.011 61.4459 61.011H87.1348Z" fill="#667185"/>
<path d="M89.2695 51.9542H104.235L101.99 66.0278L101.101 71.6028H61.7181C60.2834 71.6028 59.1764 70.675 59.0181 69.3375L58.8959 68.2917C58.7375 66.9556 57.6306 66.0264 56.1959 66.0264H44.9917L45.6153 62.1125H53.7723L56.282 46.3764H48.125L49.5778 37.2639H91.3514L91.5709 37.5139L89.2695 51.9542ZM87.7084 57.4167C88.1459 57.4167 88.5542 57.075 88.6209 56.6528C88.6875 56.2306 88.3889 55.8875 87.9514 55.8875H62.2625C61.825 55.8875 61.4153 56.2306 61.3473 56.6528C61.2806 57.075 61.5806 57.4167 62.0181 57.4167H87.7084ZM86.8917 62.5389C87.3292 62.5389 87.7375 62.1959 87.8056 61.7736C87.8723 61.3514 87.5736 61.0098 87.1361 61.0098H61.4459C61.0084 61.0098 60.5986 61.3514 60.532 61.7736C60.4653 62.1959 60.7653 62.5389 61.2028 62.5389H86.8917ZM86.075 67.6584C86.5125 67.6584 86.9209 67.3167 86.9875 66.8945C87.0542 66.4723 86.7556 66.1292 86.3181 66.1292H60.6292C60.1917 66.1292 59.782 66.4723 59.7139 66.8945C59.6473 67.3167 59.9473 67.6584 60.3848 67.6584H86.075Z" fill="#F7F9FC"/>
<path d="M86.3179 66.1304C86.7554 66.1304 87.054 66.4734 86.9874 66.8956C86.9207 67.3179 86.5124 67.6595 86.0749 67.6595H60.386C59.9485 67.6595 59.6471 67.3179 59.7152 66.8956C59.7818 66.4734 60.1915 66.1304 60.6304 66.1304H86.3179Z" fill="#667185"/>
<path d="M86.3179 66.1304C86.7554 66.1304 87.054 66.4734 86.9874 66.8956C86.9207 67.3179 86.5124 67.6595 86.0749 67.6595H60.386C59.9485 67.6595 59.6471 67.3179 59.7152 66.8956C59.7818 66.4734 60.1915 66.1304 60.6304 66.1304H86.3179Z" fill="#667185"/>
<path d="M114.525 72.061C114.524 72.018 114.52 71.9749 114.516 71.9318C114.513 71.9068 114.511 71.8805 114.509 71.8555C114.503 71.8082 114.495 71.761 114.486 71.7138C114.484 71.6971 114.482 71.6805 114.478 71.6638C114.478 71.661 114.477 71.6582 114.475 71.6541C114.466 71.6041 114.453 71.5541 114.441 71.5055C114.438 71.493 114.435 71.4791 114.431 71.4666C114.414 71.4055 114.395 71.3443 114.372 71.2846C114.372 71.2832 114.371 71.2818 114.371 71.2805C114.37 71.2777 114.368 71.2749 114.367 71.2707C114.334 71.1805 114.296 71.0943 114.253 71.0096C114.249 71.0027 114.247 70.9943 114.243 70.9874C114.242 70.9832 114.239 70.9805 114.236 70.9763C114.197 70.9027 114.156 70.8305 114.11 70.761C114.106 70.7541 114.102 70.7471 114.097 70.7402C114.077 70.7096 114.056 70.6791 114.035 70.6499L111.422 67.0874C111.449 67.1235 111.474 67.161 111.497 67.1985C111.543 67.268 111.585 67.3402 111.624 67.4138C111.629 67.4249 111.635 67.436 111.641 67.4471C111.682 67.5318 111.721 67.6193 111.754 67.7082C111.756 67.7124 111.759 67.7166 111.76 67.7221C111.781 67.7818 111.8 67.843 111.818 67.9041C111.822 67.9166 111.824 67.9305 111.828 67.943C111.841 67.9916 111.853 68.0416 111.863 68.0916C111.867 68.111 111.87 68.1305 111.872 68.1499C111.881 68.1971 111.888 68.243 111.895 68.2916C111.897 68.3166 111.899 68.343 111.902 68.368C111.906 68.411 111.909 68.4541 111.911 68.4971C111.913 68.5249 111.913 68.5527 111.913 68.5805C111.913 68.6221 111.913 68.6652 111.911 68.7068C111.91 68.7346 111.91 68.7638 111.907 68.793C111.904 68.836 111.9 68.8791 111.896 68.9235C111.893 68.9513 111.891 68.9791 111.886 69.0082C111.879 69.0555 111.872 69.1013 111.863 69.1485C111.859 69.1735 111.854 69.1985 111.849 69.2235C111.836 69.2846 111.821 69.3457 111.804 69.4068C111.802 69.418 111.799 69.4291 111.796 69.4416C111.775 69.5138 111.752 69.5874 111.725 69.6596C111.717 69.6818 111.707 69.7041 111.699 69.7263C111.679 69.7777 111.659 69.8291 111.636 69.8791C111.61 69.9374 111.584 69.9957 111.554 70.0555L92.8114 107.033L92.7169 106.905C92.6836 106.982 92.6475 107.055 92.6086 107.129C92.6058 107.135 92.603 107.139 92.6016 107.144C92.5641 107.215 92.5239 107.283 92.4822 107.351C92.4253 107.443 92.3655 107.53 92.3017 107.617C92.2836 107.642 92.2641 107.664 92.2461 107.687C92.203 107.742 92.16 107.796 92.1141 107.849C92.0905 107.876 92.0655 107.903 92.0405 107.929C91.9989 107.974 91.9558 108.018 91.9114 108.061C91.885 108.086 91.86 108.112 91.8336 108.136C91.7864 108.179 91.7378 108.221 91.6891 108.262C91.6641 108.283 91.6405 108.304 91.6155 108.325C91.5405 108.386 91.4628 108.444 91.3822 108.499C91.2989 108.555 91.2128 108.608 91.1253 108.66C91.1016 108.674 91.0767 108.686 91.0517 108.7C90.9767 108.742 90.9003 108.78 90.8225 108.817C90.7919 108.832 90.76 108.846 90.7294 108.86C90.7003 108.872 90.6711 108.885 90.6419 108.896C90.5947 108.915 90.5475 108.933 90.5003 108.95C90.4697 108.961 90.4405 108.971 90.41 108.982C90.3628 108.997 90.3155 109.012 90.2683 109.025C90.235 109.035 90.203 109.044 90.1697 109.053C90.1211 109.065 90.0711 109.076 90.0211 109.087C89.9892 109.094 89.9572 109.101 89.9266 109.108C89.8725 109.118 89.8169 109.126 89.7614 109.133C89.735 109.137 89.7072 109.142 89.6808 109.144C89.5989 109.154 89.5155 109.161 89.4336 109.164L92.0461 112.726C92.0503 112.726 92.0544 112.725 92.0586 112.725L92.06 112.726C92.0683 112.726 92.0767 112.726 92.0864 112.726C92.1253 112.726 92.1628 112.725 92.2016 112.724C92.2183 112.722 92.235 112.719 92.2517 112.719C92.335 112.715 92.4183 112.707 92.5003 112.696C92.5253 112.693 92.5489 112.69 92.5739 112.687C92.6794 112.672 92.7836 112.651 92.8878 112.625C92.9128 112.619 92.9364 112.611 92.96 112.605C93.0142 112.59 93.0697 112.578 93.1239 112.56C93.153 112.55 93.1822 112.539 93.2114 112.529C93.2336 112.522 93.2544 112.514 93.2767 112.507C93.3669 112.474 93.4558 112.439 93.5433 112.4C93.5489 112.397 93.5544 112.393 93.5614 112.392C93.5669 112.389 93.5739 112.387 93.5808 112.383C93.5808 112.383 93.5808 112.382 93.5794 112.382C93.5794 112.382 93.5794 112.383 93.5808 112.383C93.678 112.339 93.7725 112.289 93.8655 112.236C93.8683 112.235 93.8697 112.233 93.8725 112.232C93.9003 112.217 93.9253 112.199 93.9517 112.182C94.0142 112.144 94.0766 112.107 94.1378 112.065C94.1433 112.062 94.1475 112.06 94.153 112.055C94.1905 112.03 94.2253 112.001 94.2614 111.974C94.3044 111.942 94.3475 111.912 94.3878 111.879C94.3933 111.875 94.3975 111.872 94.403 111.868C94.4419 111.837 94.4767 111.803 94.5142 111.771C94.5461 111.743 94.5794 111.717 94.61 111.687C94.6169 111.68 94.6239 111.675 94.6308 111.668C94.6322 111.667 94.6322 111.667 94.6336 111.665C94.635 111.664 94.635 111.664 94.6364 111.662C94.6447 111.655 94.653 111.647 94.66 111.64C94.678 111.624 94.6919 111.604 94.71 111.587C94.7572 111.54 94.8058 111.493 94.8503 111.443C94.8628 111.429 94.8739 111.414 94.8864 111.4C94.8961 111.389 94.9086 111.378 94.9183 111.367C94.928 111.355 94.9378 111.343 94.9475 111.332C94.9794 111.293 95.01 111.254 95.0405 111.214C95.0461 111.207 95.053 111.2 95.0586 111.192C95.06 111.189 95.0614 111.186 95.0642 111.183C95.128 111.099 95.1878 111.01 95.2447 110.919C95.2503 110.91 95.2572 110.901 95.2628 110.893C95.2683 110.885 95.2725 110.875 95.278 110.867C95.3225 110.793 95.3642 110.719 95.403 110.642L114.174 73.6138C114.199 73.5638 114.224 73.5124 114.246 73.4624C114.25 73.4541 114.253 73.4457 114.256 73.4388C114.278 73.3874 114.299 73.336 114.318 73.286C114.327 73.2638 114.336 73.2416 114.345 73.2193C114.371 73.1471 114.395 73.0735 114.416 73.0013C114.418 72.9902 114.421 72.9791 114.424 72.9666C114.441 72.9055 114.456 72.8443 114.468 72.7832C114.474 72.7582 114.478 72.7332 114.482 72.7082C114.491 72.661 114.499 72.6138 114.506 72.568C114.51 72.5402 114.513 72.5124 114.516 72.4832C114.52 72.4402 114.524 72.3957 114.527 72.3527C114.528 72.3235 114.529 72.2957 114.531 72.2666C114.532 72.2235 114.532 72.1818 114.532 72.1402C114.527 72.1166 114.527 72.0888 114.525 72.061Z" fill="#667185"/>
<path d="M91.8904 113.05L88.832 108.879L89.4181 108.855C89.4931 108.853 89.5681 108.846 89.6431 108.837C89.6556 108.836 89.6681 108.835 89.6793 108.832L89.7168 108.826C89.7668 108.819 89.8167 108.812 89.8667 108.803C89.8848 108.8 89.9043 108.796 89.9223 108.792L89.9542 108.785C89.9987 108.775 90.0445 108.765 90.089 108.754C90.114 108.747 90.1376 108.74 90.1626 108.733L90.1792 108.728C90.2223 108.715 90.2667 108.703 90.3098 108.687C90.3376 108.678 90.3654 108.668 90.3931 108.658C90.4362 108.643 90.4806 108.626 90.5237 108.608C90.5556 108.596 90.5792 108.586 90.6042 108.575C90.6251 108.567 90.6431 108.557 90.6626 108.547L90.6904 108.535C90.7626 108.501 90.832 108.465 90.9015 108.428L90.9306 108.412C90.9431 108.405 90.957 108.399 90.9695 108.392C91.0598 108.339 91.1362 108.292 91.2056 108.243C91.2737 108.196 91.3431 108.144 91.4195 108.083C91.432 108.072 91.4459 108.062 91.4584 108.051L91.4876 108.026C91.532 107.989 91.5765 107.95 91.6195 107.91C91.6404 107.89 91.6598 107.871 91.6806 107.851L91.6917 107.84C91.732 107.801 91.7709 107.76 91.8098 107.719C91.832 107.696 91.8543 107.671 91.8765 107.646C91.9195 107.597 91.9584 107.549 91.9987 107.499L92.0209 107.471C92.0306 107.458 92.0404 107.446 92.0501 107.433C92.1112 107.353 92.1668 107.271 92.2154 107.19C92.2543 107.128 92.2904 107.065 92.3251 107.001L92.3306 106.989C92.3668 106.921 92.4001 106.853 92.4292 106.783L92.6459 106.286L92.7598 106.442L111.278 69.9138C111.306 69.8596 111.329 69.8068 111.353 69.7527C111.374 69.7055 111.392 69.6596 111.41 69.6124L111.433 69.5527C111.457 69.486 111.479 69.4207 111.497 69.3541L111.504 69.3235C111.52 69.268 111.533 69.2124 111.545 69.1582L111.557 69.0916C111.565 69.0485 111.572 69.0068 111.578 68.9652C111.581 68.9471 111.582 68.9277 111.585 68.9082L111.586 68.8902C111.59 68.8513 111.595 68.8124 111.596 68.7735C111.597 68.7485 111.599 68.7235 111.599 68.6985C111.6 68.6596 111.6 68.6221 111.6 68.5846C111.6 68.5596 111.6 68.536 111.599 68.511C111.597 68.4735 111.595 68.4346 111.59 68.3971L111.588 68.3721C111.586 68.3582 111.585 68.3443 111.583 68.3291C111.578 68.2874 111.571 68.2457 111.564 68.2041L111.556 68.1513C111.547 68.1068 111.536 68.0638 111.525 68.0193L111.518 67.9916C111.501 67.9305 111.485 67.8777 111.465 67.8249L111.463 67.818C111.433 67.7388 111.401 67.6638 111.361 67.5846L111.351 67.5638C111.315 67.4943 111.278 67.4305 111.236 67.3666C111.214 67.3332 111.193 67.3013 111.171 67.2693L111.675 66.8999C111.676 66.9013 111.678 66.9027 111.678 66.9041L114.288 70.4624C114.313 70.4957 114.336 70.5291 114.358 70.5638L114.378 70.5971C114.424 70.6666 114.47 70.7443 114.51 70.8207L114.52 70.8374C114.528 70.8541 114.533 70.868 114.539 70.8805C114.582 70.9652 114.622 71.0569 114.656 71.1499L114.67 71.1888C114.689 71.2443 114.711 71.3124 114.731 71.3805C114.733 71.393 114.736 71.4041 114.739 71.4166C114.756 71.4791 114.768 71.5346 114.779 71.5916L114.783 71.6096C114.785 71.6166 114.788 71.6318 114.789 71.6471C114.8 71.7096 114.808 71.7624 114.814 71.8152C114.817 71.8374 114.818 71.8596 114.821 71.8818L114.822 71.9013C114.826 71.9485 114.831 71.9957 114.832 72.0443C114.833 72.0749 114.833 72.1055 114.835 72.136C114.836 72.1818 114.835 72.2291 114.833 72.2777C114.832 72.3096 114.831 72.3402 114.829 72.3721C114.826 72.4207 114.822 72.468 114.817 72.5166L114.815 72.5332C114.813 72.5582 114.81 72.5846 114.807 72.6096C114.8 72.661 114.79 72.7124 114.782 72.7638L114.778 72.7874C114.775 72.8068 114.771 72.8277 114.767 72.8471C114.753 72.9138 114.736 72.9818 114.718 73.0485C114.714 73.0652 114.711 73.0763 114.708 73.086C114.686 73.1652 114.66 73.2457 114.631 73.3249C114.625 73.3416 114.618 73.3582 114.611 73.3749L114.603 73.3957C114.581 73.4513 114.558 73.5069 114.535 73.5624C114.532 73.5707 114.528 73.5805 114.524 73.5902C114.499 73.6443 114.474 73.6985 114.446 73.7541L95.6751 110.782C95.6362 110.857 95.5918 110.937 95.539 111.026C95.5348 111.035 95.5293 111.044 95.5237 111.054C95.5168 111.065 95.5098 111.076 95.5029 111.086C95.4404 111.185 95.3793 111.275 95.3168 111.36L95.3223 111.367L95.1501 111.567L95.1487 111.568L94.9098 111.847L94.8987 111.835C94.8904 111.844 94.8806 111.853 94.8723 111.862L94.8181 111.914C94.7945 111.936 94.7709 111.955 94.7473 111.976L94.6792 112.035C94.6515 112.06 94.6237 112.085 94.5945 112.108L94.5723 112.125C94.5445 112.147 94.5098 112.174 94.4751 112.199L94.4056 112.25C94.3792 112.271 94.3515 112.292 94.3237 112.311L94.3001 112.326C94.2431 112.365 94.1765 112.405 94.1098 112.446L94.082 112.464C94.0681 112.474 94.0529 112.482 94.039 112.492L94.0487 112.504L93.7251 112.655C93.7195 112.658 93.714 112.661 93.7084 112.662L93.4806 112.768L93.4751 112.761C93.4445 112.772 93.4126 112.785 93.3793 112.797L93.2792 112.832C93.257 112.84 93.2362 112.847 93.214 112.854C93.1668 112.869 93.1181 112.882 93.0709 112.894L93.014 112.917C92.9959 112.922 92.9779 112.928 92.9584 112.932C92.8459 112.96 92.7306 112.982 92.6168 113C92.5973 113.003 92.5792 113.005 92.5598 113.007L92.5362 113.01C92.4445 113.022 92.3529 113.03 92.2654 113.035C92.2445 113.037 92.2279 113.039 92.2112 113.04C92.1681 113.042 92.1265 113.043 92.0848 113.043H92.0556H92.0501L91.8904 113.05ZM90.0001 109.414L92.2001 112.412C92.2112 112.411 92.2209 112.41 92.232 112.41C92.307 112.405 92.3834 112.399 92.4584 112.389L92.5251 112.38C92.6209 112.367 92.7167 112.347 92.8112 112.324L92.9154 112.296C92.9529 112.286 92.9917 112.276 93.0292 112.264C93.0431 112.26 93.057 112.254 93.0709 112.25L93.1695 112.215C93.2654 112.18 93.3431 112.149 93.414 112.117C93.4126 112.117 93.4209 112.112 93.4292 112.108L93.4542 112.099C93.539 112.06 93.6251 112.015 93.7098 111.967L93.7237 111.958C93.7292 111.954 93.7376 111.95 93.7459 111.944C93.7598 111.935 93.7751 111.926 93.789 111.917C93.8487 111.88 93.9056 111.847 93.9598 111.81L93.982 111.796C93.9917 111.789 94.0098 111.775 94.0279 111.761L94.1098 111.7C94.1362 111.68 94.164 111.661 94.1904 111.64L94.2112 111.625C94.2251 111.614 94.2445 111.596 94.264 111.578L94.3487 111.504C94.364 111.492 94.3806 111.478 94.3945 111.464L94.4529 111.407C94.464 111.394 94.4751 111.382 94.4862 111.371L94.5154 111.342C94.5501 111.307 94.5834 111.274 94.6167 111.237C94.632 111.219 94.6404 111.208 94.6487 111.199C94.6584 111.187 94.6667 111.178 94.6765 111.169L94.914 111.368L94.6792 111.167L94.7056 111.136C94.7334 111.103 94.7584 111.069 94.7848 111.036C94.7945 111.022 94.8015 111.015 94.807 111.008L94.8126 111C94.8668 110.928 94.9209 110.849 94.9765 110.758C94.982 110.75 94.989 110.739 94.9959 110.729C94.9959 110.728 95.0015 110.719 95.0056 110.71C95.0459 110.643 95.0848 110.575 95.1209 110.504L113.892 73.4777C113.915 73.4318 113.938 73.3846 113.958 73.3388L113.968 73.3166C113.989 73.2707 114.007 73.2235 114.025 73.1777L114.049 73.118C114.072 73.0513 114.095 72.986 114.113 72.9194L114.121 72.8888C114.136 72.8346 114.15 72.7791 114.161 72.7235L114.174 72.6555C114.182 72.6138 114.189 72.5707 114.195 72.5291C114.197 72.5096 114.199 72.4902 114.201 72.4707L114.203 72.4541C114.207 72.4152 114.211 72.3763 114.213 72.3374C114.214 72.3124 114.215 72.2874 114.215 72.261C114.217 72.2235 114.217 72.186 114.217 72.1485C114.217 72.1235 114.217 72.0985 114.215 72.0749C114.214 72.0374 114.211 71.9985 114.207 71.961L114.206 71.9374C114.204 71.9221 114.203 71.9068 114.201 71.8916C114.196 71.8499 114.19 71.8096 114.182 71.768L114.175 71.7221C114.174 71.7166 114.172 71.7124 114.172 71.7068C114.165 71.6707 114.154 71.6277 114.143 71.5832L114.136 71.5555C114.121 71.4971 114.104 71.4457 114.086 71.3943C114.085 71.3916 114.082 71.386 114.081 71.3791C114.053 71.3041 114.021 71.2291 113.981 71.1485L113.965 71.118C113.933 71.0568 113.897 70.9957 113.856 70.9305L113.838 70.9013C113.826 70.886 113.808 70.8596 113.79 70.8346L112.231 68.7068C112.231 68.7096 112.231 68.7138 112.231 68.7166C112.229 68.7485 112.228 68.7805 112.226 68.8124C112.224 68.8596 112.22 68.9082 112.214 68.9568L112.213 68.9749C112.21 68.9999 112.207 69.0249 112.204 69.0499C112.197 69.1027 112.188 69.1541 112.178 69.2068L112.174 69.2305C112.171 69.2499 112.167 69.2693 112.163 69.2888C112.149 69.3568 112.132 69.4235 112.113 69.4916L112.104 69.5263C112.081 69.6082 112.056 69.6874 112.026 69.7666C112.021 69.7832 112.014 69.7999 112.007 69.8166L111.999 69.8374C111.976 69.893 111.956 69.9485 111.931 70.0041C111.903 70.068 111.874 70.1318 111.84 70.1943L92.864 107.625L92.7654 107.49C92.7612 107.497 92.757 107.505 92.7515 107.512C92.6931 107.608 92.6265 107.704 92.5556 107.8C92.5418 107.818 92.5279 107.836 92.514 107.854L92.4959 107.878C92.4487 107.937 92.4015 107.996 92.3515 108.053C92.3265 108.082 92.3001 108.111 92.2723 108.14C92.2265 108.189 92.1806 108.236 92.1334 108.283L92.1223 108.294C92.0987 108.318 92.0737 108.342 92.0501 108.365C91.9987 108.412 91.9473 108.457 91.8945 108.501L91.8709 108.522C91.8529 108.537 91.8348 108.554 91.8154 108.568C91.7265 108.639 91.6445 108.7 91.564 108.755C91.482 108.812 91.3918 108.869 91.2876 108.929C91.2695 108.94 91.2501 108.95 91.232 108.96L91.2084 108.972C91.1279 109.017 91.0445 109.06 90.9598 109.099L90.9348 109.11C90.9098 109.122 90.8834 109.133 90.8584 109.146C90.8306 109.158 90.8001 109.171 90.7709 109.182C90.7126 109.205 90.6612 109.225 90.6098 109.244C90.5779 109.255 90.5445 109.268 90.5126 109.279C90.4612 109.296 90.4098 109.311 90.3584 109.326L90.3418 109.33C90.3112 109.339 90.2806 109.349 90.2515 109.355C90.1987 109.369 90.1445 109.38 90.0904 109.393L90.0626 109.399C90.039 109.407 90.0195 109.411 90.0001 109.414Z" fill="#F9FAFB"/>
<path d="M109.194 66.0291C111.36 66.0291 112.561 68.0763 111.557 70.0554L92.786 107.083C92.1541 108.329 90.8082 109.169 89.4443 109.168C90.8179 109.111 92.1513 108.198 92.7166 106.905L106.472 75.4513C107.321 73.511 106.108 71.6041 104.023 71.6041H101.098L101.987 66.0291H109.194Z" fill="#D0D5DD"/>
<path d="M89.4473 109.481C89.4459 109.481 89.4445 109.481 89.4432 109.481L89.4307 108.856C90.6848 108.804 91.9182 107.951 92.4293 106.781L106.185 75.3263C106.551 74.4875 106.51 73.6194 106.068 72.9458C105.64 72.293 104.896 71.918 104.022 71.918H100.732L101.721 65.718H109.193C110.315 65.718 111.267 66.2194 111.804 67.0958C112.354 67.9916 112.365 69.1527 111.835 70.1986L93.064 107.224C92.3793 108.574 90.9265 109.481 89.4473 109.481ZM101.467 71.2916H104.025C105.113 71.2916 106.049 71.7694 106.593 72.6027C107.151 73.4569 107.213 74.5402 106.758 75.5764L96.4043 99.2527L111.278 69.9138C111.717 69.05 111.714 68.1402 111.272 67.4208C110.851 66.7347 110.095 66.3416 109.195 66.3416H102.256L101.467 71.2916Z" fill="#F9FAFB"/>
<path d="M109.354 77.6154C109.351 77.5681 109.349 77.5209 109.343 77.4737C109.34 77.4501 109.338 77.4265 109.335 77.4029C109.329 77.3612 109.324 77.3195 109.315 77.2779C109.313 77.2654 109.313 77.2529 109.31 77.2404C109.307 77.2279 109.304 77.2167 109.301 77.2042C109.293 77.1667 109.285 77.1279 109.275 77.0904C109.27 77.0667 109.263 77.0431 109.257 77.0195C109.246 76.9806 109.233 76.9417 109.219 76.9029C109.214 76.8876 109.21 76.8709 109.204 76.8556C109.203 76.8529 109.201 76.8501 109.2 76.8459C109.167 76.7556 109.129 76.6695 109.086 76.5848C109.082 76.5779 109.081 76.5695 109.076 76.5626C109.074 76.557 109.07 76.5529 109.067 76.5473C109.028 76.4737 108.986 76.4029 108.942 76.3348C108.938 76.3292 108.935 76.3237 108.932 76.3181C108.911 76.2876 108.89 76.2584 108.869 76.2292L106.257 72.6667C106.282 72.7015 106.306 72.7376 106.329 72.7737C106.374 72.8431 106.417 72.914 106.454 72.9862C106.461 72.9987 106.467 73.0112 106.474 73.0237C106.517 73.1084 106.554 73.1959 106.588 73.2848C106.594 73.3042 106.6 73.3223 106.607 73.3417C106.619 73.3806 106.633 73.4195 106.645 73.4584C106.651 73.482 106.657 73.5056 106.663 73.5292C106.672 73.5667 106.681 73.6042 106.689 73.6431C106.694 73.6681 106.699 73.6917 106.703 73.7167C106.71 73.7584 106.717 73.8001 106.722 73.8417C106.725 73.8654 106.729 73.889 106.731 73.9126C106.735 73.9598 106.739 74.007 106.74 74.0542C106.742 74.0737 106.743 74.0931 106.743 74.1126C106.744 74.1792 106.744 74.2473 106.742 74.3154C106.742 74.3265 106.74 74.3376 106.739 74.3501C106.736 74.407 106.732 74.464 106.725 74.5223C106.722 74.5459 106.718 74.5695 106.715 74.5931C106.708 74.639 106.701 74.6862 106.693 74.732C106.689 74.7584 106.683 74.7848 106.678 74.8112C106.668 74.8556 106.657 74.9015 106.646 74.9473C106.639 74.9737 106.632 75.0001 106.625 75.0265C106.611 75.0751 106.596 75.1237 106.579 75.1723C106.571 75.1945 106.564 75.2181 106.556 75.2404C106.531 75.3112 106.501 75.3834 106.471 75.4542L92.7153 106.908C92.682 106.985 92.6459 107.058 92.607 107.132C92.6042 107.138 92.6014 107.142 92.6001 107.147C92.5625 107.218 92.5223 107.286 92.4806 107.354C92.4237 107.446 92.3639 107.533 92.3001 107.62C92.282 107.645 92.2626 107.667 92.2445 107.69C92.2014 107.745 92.1584 107.799 92.1126 107.851C92.0889 107.879 92.0639 107.906 92.0389 107.932C91.9973 107.976 91.9542 108.021 91.9098 108.064C91.8834 108.089 91.8584 108.115 91.832 108.139C91.7848 108.182 91.7362 108.224 91.6876 108.265C91.6626 108.286 91.6389 108.307 91.6139 108.328C91.5389 108.389 91.4612 108.447 91.3806 108.501C91.2973 108.558 91.2112 108.611 91.1237 108.663C91.1001 108.676 91.0751 108.689 91.0501 108.703C90.9751 108.745 90.8987 108.783 90.8209 108.82C90.7903 108.835 90.7584 108.849 90.7278 108.863C90.6987 108.875 90.6695 108.888 90.6403 108.899C90.5931 108.918 90.5459 108.936 90.4987 108.953C90.4681 108.964 90.4389 108.974 90.4084 108.985C90.3612 109 90.3139 109.015 90.2667 109.028C90.2334 109.038 90.2014 109.047 90.1681 109.056C90.1195 109.068 90.0695 109.079 90.0195 109.09C89.9876 109.097 89.9556 109.104 89.9251 109.111C89.8709 109.121 89.8153 109.129 89.7598 109.136C89.7334 109.14 89.7056 109.145 89.6792 109.147C89.5973 109.157 89.5139 109.164 89.432 109.167L42.5723 109.17C41.6264 109.17 40.8237 108.765 40.3403 108.107L42.9528 111.67C43.4362 112.328 44.2389 112.732 45.1848 112.732L92.0445 112.729C92.1278 112.726 92.2098 112.72 92.2917 112.71C92.3195 112.707 92.3459 112.701 92.3723 112.699C92.4278 112.692 92.482 112.683 92.5362 112.674C92.5681 112.668 92.6001 112.66 92.632 112.653C92.682 112.642 92.7306 112.632 92.7792 112.618C92.8126 112.61 92.8459 112.6 92.8792 112.59C92.9084 112.582 92.9376 112.575 92.9667 112.565C92.9848 112.56 93.0028 112.553 93.0209 112.547C93.0514 112.538 93.0806 112.526 93.1112 112.515C93.1584 112.499 93.2056 112.479 93.2528 112.461C93.282 112.449 93.3112 112.438 93.3403 112.425C93.3556 112.418 93.3709 112.413 93.3848 112.407C93.4014 112.4 93.4167 112.39 93.4334 112.382C93.5112 112.346 93.5876 112.307 93.6626 112.265C93.6792 112.257 93.6959 112.25 93.7112 112.24C93.7195 112.235 93.7278 112.229 93.7362 112.225C93.907 112.126 94.0709 112.014 94.2251 111.89C94.2306 111.886 94.2376 111.882 94.2431 111.876C94.2626 111.861 94.2792 111.843 94.2987 111.828C94.3473 111.786 94.3959 111.745 94.4431 111.701C94.4528 111.692 94.4639 111.683 94.4751 111.674C94.4917 111.658 94.5056 111.642 94.5223 111.625C94.5667 111.582 94.6098 111.538 94.6514 111.493C94.6653 111.478 94.6792 111.465 94.6931 111.45C94.7042 111.438 94.7139 111.425 94.7251 111.413C94.7709 111.36 94.8139 111.307 94.857 111.251C94.8709 111.233 94.8862 111.217 94.9001 111.199C94.9042 111.193 94.9084 111.186 94.9139 111.179C94.9778 111.093 95.0389 111.004 95.0945 110.914C95.0973 110.91 95.1014 110.906 95.1042 110.9C95.1431 110.836 95.1792 110.772 95.2139 110.707C95.2167 110.701 95.2195 110.696 95.2223 110.69C95.2528 110.631 95.2834 110.571 95.3112 110.51C95.3181 110.496 95.3237 110.481 95.3306 110.467L109.086 79.0126C109.117 78.9417 109.145 78.8695 109.171 78.7987C109.179 78.7751 109.186 78.7529 109.195 78.7306C109.211 78.682 109.226 78.6334 109.24 78.5848C109.247 78.5584 109.254 78.532 109.261 78.5056C109.272 78.4598 109.283 78.4154 109.293 78.3695C109.299 78.3431 109.304 78.3167 109.308 78.2904C109.317 78.2445 109.324 78.1973 109.331 78.1515C109.333 78.1279 109.338 78.1042 109.34 78.0806C109.347 78.0223 109.351 77.9654 109.354 77.9084C109.354 77.8973 109.356 77.8862 109.357 77.8737C109.36 77.8056 109.36 77.7376 109.358 77.6709C109.357 77.6542 109.356 77.6348 109.354 77.6154Z" fill="#D0D5DD"/>
<path d="M45.1847 113.046C44.1611 113.046 43.2555 112.612 42.7014 111.856L40.0889 108.293L40.593 107.924L40.5958 107.926C41.0319 108.518 41.7528 108.858 42.5736 108.858L89.4333 108.856C89.4958 108.853 89.5708 108.846 89.6458 108.837C89.6583 108.836 89.6708 108.835 89.6819 108.832L89.7194 108.826C89.7694 108.819 89.8194 108.812 89.8694 108.803C89.8875 108.8 89.9069 108.796 89.925 108.792L89.9569 108.785C90.0014 108.775 90.0472 108.765 90.0916 108.754C90.1166 108.747 90.1403 108.74 90.1653 108.733L90.1819 108.728C90.225 108.715 90.2694 108.703 90.3125 108.687C90.3403 108.678 90.368 108.668 90.3958 108.658C90.4389 108.643 90.4833 108.626 90.5264 108.608C90.5583 108.596 90.5819 108.586 90.6069 108.575C90.6278 108.567 90.6458 108.557 90.6652 108.547L90.693 108.535C90.7653 108.501 90.8347 108.465 90.9041 108.428L90.9333 108.412C90.9458 108.406 90.9597 108.399 90.9722 108.392C91.0625 108.339 91.1389 108.292 91.2083 108.243C91.2764 108.196 91.3458 108.144 91.4222 108.083C91.4347 108.072 91.4486 108.062 91.4611 108.051L91.4902 108.026C91.5347 107.989 91.5791 107.95 91.6222 107.91C91.643 107.89 91.6625 107.871 91.6833 107.851L91.6944 107.84C91.7347 107.801 91.7736 107.76 91.8125 107.719C91.8347 107.696 91.8569 107.671 91.8791 107.646C91.9222 107.597 91.9611 107.549 92.0014 107.499L92.0236 107.471C92.0333 107.458 92.043 107.446 92.0528 107.433C92.1139 107.353 92.1694 107.271 92.218 107.19C92.2569 107.128 92.293 107.065 92.3278 107.001L92.3333 106.989C92.3694 106.921 92.4028 106.853 92.4319 106.783L106.187 75.3292C106.215 75.2639 106.242 75.1986 106.265 75.1347L106.286 75.0722C106.3 75.0292 106.315 74.9847 106.328 74.9403C106.333 74.918 106.34 74.8958 106.346 74.8736C106.358 74.8278 106.368 74.7875 106.376 74.7472C106.382 74.7236 106.386 74.7 106.39 74.6764C106.399 74.6333 106.404 74.5917 106.41 74.5514L106.418 74.4889C106.424 74.4375 106.428 74.3861 106.431 74.3347L106.432 74.3083C106.435 74.243 106.435 74.1833 106.433 74.1236L106.431 74.0722C106.428 74.0292 106.426 73.9875 106.421 73.9472C106.419 73.9305 106.417 73.9153 106.415 73.9014L106.412 73.8847C106.407 73.8472 106.401 73.8111 106.396 73.7736C106.392 73.7514 106.387 73.7305 106.383 73.7083C106.376 73.675 106.368 73.6417 106.36 73.6083L106.343 73.5458C106.333 73.5125 106.322 73.4778 106.311 73.443L106.294 73.393C106.267 73.318 106.235 73.243 106.194 73.1639L106.178 73.1305C106.144 73.0667 106.108 73.0042 106.068 72.9444C106.049 72.9139 106.028 72.8833 106.007 72.8542L106.006 72.8514L106.51 72.4819C106.51 72.4819 106.51 72.4819 106.51 72.4833L109.122 76.0444C109.146 76.0778 109.169 76.1111 109.193 76.1444L109.21 76.1708C109.258 76.2458 109.303 76.3208 109.343 76.3958C109.347 76.4028 109.351 76.4097 109.356 76.4167L109.372 76.4528C109.419 76.5472 109.458 76.6375 109.492 76.7264L109.499 76.7458C109.506 76.7639 109.51 76.7778 109.514 76.7917C109.532 76.8458 109.546 76.8903 109.56 76.9347C109.567 76.9583 109.572 76.9819 109.579 77.0055C109.592 77.0555 109.603 77.0972 109.611 77.1403C109.615 77.1569 109.618 77.168 109.619 77.1792C109.622 77.1944 109.624 77.2055 109.625 77.218C109.635 77.2694 109.642 77.3167 109.647 77.3625C109.651 77.3972 109.654 77.4194 109.657 77.443C109.662 77.4958 109.665 77.5486 109.668 77.6014L109.669 77.6194C109.671 77.6347 109.672 77.65 109.672 77.6667C109.675 77.7417 109.675 77.8167 109.671 77.8917L109.668 77.9236C109.664 77.993 109.66 78.0555 109.651 78.1194C109.649 78.1389 109.646 78.1583 109.643 78.1764L109.64 78.1972C109.633 78.2472 109.625 78.2986 109.615 78.35C109.61 78.3792 109.604 78.4083 109.599 78.4361C109.587 78.4861 109.576 78.5361 109.564 78.5861C109.557 78.6153 109.549 78.6444 109.54 78.6736C109.525 78.7264 109.508 78.7792 109.49 78.8333L109.483 78.8528C109.478 78.8708 109.471 78.8903 109.464 78.9083C109.436 78.9847 109.406 79.0625 109.372 79.1403L95.5944 110.643C95.5653 110.708 95.5319 110.774 95.4986 110.837L95.4903 110.854C95.4514 110.926 95.4125 110.997 95.3694 111.065L95.3555 111.086C95.2958 111.183 95.2319 111.276 95.1625 111.368C95.1611 111.371 95.1555 111.379 95.1486 111.389C95.1375 111.404 95.125 111.418 95.1125 111.432L95.1014 111.446C95.0541 111.506 95.0069 111.564 94.9583 111.619C94.9444 111.637 94.9347 111.649 94.9236 111.661C94.9125 111.674 94.9014 111.685 94.8889 111.697L94.8791 111.707C94.8333 111.756 94.7875 111.803 94.7402 111.85L94.7277 111.862C94.7152 111.876 94.7028 111.889 94.6889 111.901C94.6791 111.911 94.6694 111.919 94.6597 111.928C94.6041 111.979 94.5514 112.024 94.4986 112.068L94.4819 112.082C94.468 112.094 94.4528 112.108 94.4375 112.119L94.4139 112.137C94.2528 112.267 94.075 112.387 93.8903 112.496C93.8833 112.5 93.8736 112.507 93.8639 112.512C93.8486 112.521 93.8347 112.528 93.8194 112.536C93.7305 112.585 93.6472 112.626 93.5639 112.667C93.5402 112.679 93.5264 112.686 93.5111 112.693C93.5 112.699 93.4875 112.703 93.475 112.708C93.4305 112.728 93.3986 112.74 93.3666 112.753C93.3166 112.774 93.2653 112.793 93.2139 112.811C93.1819 112.822 93.1486 112.835 93.1166 112.846L93.1 112.851C93.0861 112.857 93.0722 112.861 93.0583 112.865C93.0375 112.872 93.0152 112.878 92.993 112.885L92.9472 112.897C92.9166 112.906 92.8861 112.915 92.8555 112.922C92.8027 112.936 92.7486 112.947 92.6958 112.96L92.6694 112.965C92.6444 112.971 92.618 112.976 92.593 112.982C92.5333 112.993 92.4736 113.001 92.4139 113.01L92.3875 113.014C92.3666 113.017 92.3458 113.021 92.325 113.022C92.2305 113.033 92.1416 113.04 92.0541 113.043L45.1847 113.046ZM41.643 109.356L43.2055 111.485C43.6416 112.079 44.3625 112.419 45.1847 112.419L92.0444 112.417C92.1069 112.414 92.1819 112.407 92.2569 112.399C92.2694 112.397 92.2819 112.396 92.2944 112.393L92.3305 112.387C92.3805 112.381 92.4305 112.374 92.4805 112.364C92.5 112.36 92.518 112.356 92.5361 112.351L92.5666 112.344C92.6111 112.335 92.6569 112.325 92.7014 112.314C92.7264 112.307 92.7514 112.3 92.775 112.293L92.8333 112.276C92.8472 112.272 92.8597 112.269 92.8736 112.265L92.9236 112.247C92.95 112.239 92.9778 112.228 93.0055 112.218C93.0486 112.203 93.093 112.186 93.1361 112.168C93.1639 112.157 93.1902 112.146 93.2166 112.135L93.2653 112.114C93.2778 112.107 93.2903 112.1 93.3028 112.094C93.3736 112.061 93.4444 112.025 93.5139 111.987C93.5264 111.981 93.5389 111.975 93.5514 111.968C93.5639 111.961 93.5722 111.956 93.5819 111.95C93.7402 111.858 93.8916 111.754 94.0319 111.642L94.0666 111.614C94.0778 111.604 94.0889 111.594 94.1 111.585C94.1444 111.547 94.1902 111.508 94.2333 111.468C94.2416 111.461 94.25 111.453 94.2597 111.446L94.2764 111.429C94.2861 111.419 94.2958 111.41 94.3055 111.4C94.3472 111.36 94.3861 111.319 94.425 111.278C94.4333 111.268 94.443 111.258 94.4528 111.249L94.4625 111.237C94.475 111.222 94.4833 111.212 94.4916 111.203C94.5333 111.154 94.5736 111.106 94.6139 111.056C94.6222 111.044 94.6319 111.033 94.6416 111.021L94.6528 111.007C94.6528 111.006 94.6583 110.997 94.6653 110.989C94.725 110.908 94.7805 110.826 94.8305 110.746L94.843 110.728C94.8778 110.671 94.9097 110.615 94.9403 110.558L94.9486 110.54C94.975 110.489 95.0028 110.435 95.0278 110.379L95.0458 110.34L108.801 78.8861C108.829 78.8208 108.856 78.7569 108.878 78.6917L108.899 78.6292C108.914 78.5847 108.928 78.5403 108.94 78.4972C108.947 78.4736 108.953 78.45 108.96 78.4264C108.971 78.3847 108.981 78.3444 108.989 78.3042C108.994 78.2805 108.999 78.2569 109.003 78.2333C109.011 78.1917 109.017 78.15 109.022 78.1083L109.031 78.0444C109.036 77.993 109.04 77.943 109.043 77.8917L109.044 77.868C109.047 77.8 109.047 77.7403 109.046 77.6819L109.043 77.6305C109.04 77.5889 109.037 77.5472 109.033 77.5055C109.032 77.4889 109.029 77.4708 109.026 77.4542C109.019 77.4055 109.014 77.3694 109.008 77.3319C109.007 77.3222 109.006 77.3125 109.004 77.3014C109.001 77.2861 108.999 77.2764 108.996 77.2653C108.989 77.2347 108.982 77.2014 108.972 77.168C108.965 77.1417 108.961 77.1236 108.956 77.1069C108.946 77.0722 108.935 77.0375 108.922 77.0028L108.912 76.9708C108.91 76.9639 108.907 76.9569 108.904 76.95C108.878 76.8778 108.846 76.8042 108.806 76.725L108.789 76.6917C108.757 76.6292 108.719 76.5667 108.679 76.5055L108.665 76.4833C108.65 76.4611 108.633 76.4375 108.615 76.4125L107.056 74.2861C107.056 74.3 107.054 74.3139 107.054 74.3264L107.051 74.3583C107.047 74.4278 107.043 74.4917 107.035 74.5555C107.032 74.575 107.029 74.5944 107.026 74.6139L107.024 74.6347C107.017 74.6861 107.008 74.7375 106.999 74.7889C106.993 74.8167 106.987 74.8458 106.982 74.875C106.971 74.925 106.96 74.975 106.947 75.025C106.939 75.0569 106.932 75.0847 106.924 75.1111C106.908 75.1639 106.892 75.2167 106.874 75.2708L106.865 75.2944C106.86 75.3111 106.854 75.3292 106.847 75.3458C106.819 75.4236 106.789 75.5014 106.754 75.5792L92.9986 107.033C92.9639 107.111 92.9264 107.192 92.8805 107.278L92.875 107.29C92.8319 107.372 92.7875 107.446 92.743 107.519C92.6847 107.615 92.618 107.711 92.5472 107.807C92.5333 107.825 92.5194 107.843 92.5055 107.861L92.4875 107.885C92.4402 107.944 92.393 108.003 92.343 108.06C92.318 108.089 92.2916 108.118 92.2639 108.147C92.218 108.196 92.1722 108.243 92.125 108.29L92.1139 108.301C92.0902 108.325 92.0653 108.349 92.0416 108.372C91.9903 108.419 91.9389 108.464 91.8861 108.508L91.8625 108.529C91.8444 108.544 91.8264 108.561 91.8069 108.575C91.718 108.646 91.6361 108.707 91.5555 108.762C91.4736 108.819 91.3833 108.876 91.2791 108.936C91.2611 108.947 91.2416 108.957 91.2236 108.967L91.2 108.979C91.1194 109.024 91.0361 109.067 90.9514 109.106L90.9264 109.117C90.9014 109.129 90.875 109.14 90.85 109.153C90.8222 109.165 90.7916 109.178 90.7625 109.189C90.7041 109.212 90.6528 109.232 90.6014 109.251C90.5694 109.262 90.5361 109.275 90.5041 109.286C90.4528 109.303 90.4014 109.318 90.35 109.333L90.3333 109.337C90.3028 109.346 90.2722 109.356 90.243 109.362C90.1903 109.376 90.1361 109.387 90.0819 109.4L90.0541 109.406C90.0291 109.411 90.0041 109.417 89.9778 109.421C89.918 109.432 89.8583 109.44 89.7986 109.449L89.7722 109.453C89.7514 109.456 89.7319 109.458 89.7111 109.461C89.6166 109.472 89.5277 109.479 89.4402 109.482L42.568 109.485C42.2472 109.483 41.9361 109.439 41.643 109.356ZM95.3541 111.087L95.3527 111.09C95.3541 111.089 95.3541 111.089 95.3541 111.087ZM94.8458 110.725C94.8458 110.726 94.8444 110.726 94.8444 110.728L94.8458 110.725Z" fill="#F9FAFB"/>
<path d="M106.847 55.5166L104.235 51.9541L101.99 66.0277L101.1 71.6027H104.025C104.111 71.6027 104.197 71.6055 104.279 71.6124L104.603 69.5888V69.5874L106.847 55.5166Z" fill="#E4E7EC"/>
<path d="M104.543 71.95L104.254 71.9264C104.181 71.9208 104.103 71.9167 104.025 71.9167H100.733L104.043 51.1653L107.176 55.4361L104.933 69.5042L104.913 69.6403L104.543 71.95ZM101.467 71.2917H104.015L104.295 69.5417L106.518 55.5972L104.425 52.7431L101.467 71.2917Z" fill="#F9FAFB"/>
<path d="M106.474 75.4501L92.7181 106.904C92.1528 108.197 90.8195 109.111 89.432 109.167L42.5723 109.17C41.1376 109.17 40.032 108.239 39.8723 106.903L35.4917 69.8751C35.2626 67.9349 37.082 66.0293 39.1653 66.0293H56.1945C57.6292 66.0293 58.7376 66.9571 58.8959 68.2932L59.0195 69.339C59.1778 70.6765 60.2834 71.6057 61.7195 71.6057H104.026C104.113 71.6057 104.199 71.6085 104.281 71.6154C106.207 71.7626 107.286 73.5904 106.474 75.4501Z" fill="#D0D5DD"/>
<path d="M42.5708 109.483C40.9763 109.483 39.7388 108.438 39.5611 106.942L35.1805 69.9112C35.0666 68.9459 35.4125 67.9278 36.1319 67.1195C36.925 66.2278 38.0305 65.7153 39.1652 65.7153H56.1944C57.7902 65.7153 59.0291 66.7598 59.2055 68.2556L59.3291 69.3014C59.468 70.4737 60.4499 71.2917 61.718 71.2917H104.025C104.121 71.2917 104.214 71.2959 104.306 71.3028C105.311 71.3806 106.167 71.8876 106.651 72.6931C107.156 73.5306 107.194 74.582 106.761 75.5751L93.0055 107.029C92.3916 108.433 90.9611 109.418 89.4458 109.479L42.5708 109.483ZM39.1652 66.3417C38.2222 66.3417 37.2638 66.7876 36.5986 67.5348C35.9986 68.2098 35.7083 69.0487 35.8013 69.8376L40.1819 106.868C40.3208 108.04 41.3027 108.858 42.5708 108.858L89.4305 108.856C90.6805 108.806 91.918 107.951 92.4305 106.781L106.187 75.3264C106.539 74.5209 106.512 73.6792 106.115 73.0167C105.736 72.3862 105.06 71.9889 104.257 71.9278C104.182 71.9223 104.104 71.9181 104.026 71.9181H61.718C60.1236 71.9181 58.8861 70.8723 58.7083 69.3764L58.5847 68.3306C58.4458 67.1598 57.4625 66.3417 56.1944 66.3417H39.1652Z" fill="#F9FAFB"/>
<path d="M101.1 71.9166H61.7181C60.1236 71.9166 58.8847 70.8722 58.707 69.3763L58.5847 68.3305C58.4459 67.1597 57.4625 66.3416 56.1945 66.3416H44.9903C44.8986 66.3416 44.8125 66.3013 44.7528 66.2319C44.6931 66.1624 44.6681 66.0708 44.682 65.9805L45.3056 62.0666C45.3292 61.9152 45.4611 61.8027 45.6139 61.8027H53.5056L55.9153 46.6916H48.1236C48.032 46.6916 47.9459 46.6513 47.8861 46.5819C47.8264 46.5124 47.8014 46.4208 47.8153 46.3305L49.2681 37.218C49.2917 37.0666 49.4236 36.9541 49.5764 36.9541H91.35C91.4403 36.9541 91.525 36.993 91.5847 37.061L91.8042 37.311C91.8653 37.3805 91.8931 37.4749 91.8778 37.5666L89.6347 51.6416H104.233C104.325 51.6416 104.411 51.6819 104.471 51.7513C104.531 51.8208 104.556 51.9124 104.542 52.0027L101.408 71.6527C101.385 71.8055 101.254 71.9166 101.1 71.9166ZM45.357 65.7166H56.1959C57.7903 65.7166 59.0292 66.761 59.207 68.2569L59.3292 69.3027C59.4681 70.4735 60.4514 71.2916 61.7195 71.2916H100.833L103.868 52.2666H89.2695C89.1778 52.2666 89.0917 52.2263 89.032 52.1569C88.9723 52.0874 88.9473 51.9958 88.9611 51.9055L91.2389 37.6124L91.2098 37.5791H49.8445L48.4903 46.0666H56.282C56.3736 46.0666 56.4597 46.1069 56.5195 46.1763C56.5792 46.2458 56.6042 46.3374 56.5903 46.4277L54.0806 62.1638C54.057 62.3152 53.925 62.4277 53.7722 62.4277H45.8806L45.357 65.7166ZM86.075 67.9708H60.3861C60.082 67.9708 59.8014 67.8472 59.6167 67.6305C59.4347 67.4166 59.3597 67.1374 59.4056 66.8458C59.4972 66.2694 60.0347 65.818 60.6292 65.818H86.3181C86.6209 65.818 86.9014 65.9416 87.0847 66.1569C87.2681 66.3708 87.3431 66.6513 87.2959 66.9444C87.2042 67.5194 86.6681 67.9708 86.075 67.9708ZM60.6292 66.443C60.3445 66.443 60.0667 66.6722 60.0236 66.9444C60.0056 67.0541 60.0306 67.1513 60.0931 67.2249C60.1597 67.3027 60.2639 67.3458 60.3861 67.3458H86.075C86.3597 67.3458 86.6361 67.1166 86.6792 66.8458C86.6973 66.736 86.6722 66.636 86.6097 66.5624C86.5431 66.4847 86.4403 66.443 86.3181 66.443H60.6292ZM86.8917 62.8513H61.2014C60.8972 62.8513 60.6181 62.7277 60.4334 62.511C60.25 62.2972 60.175 62.018 60.2222 61.7249C60.3139 61.1499 60.8514 60.6985 61.4459 60.6985H87.1347C87.4389 60.6985 87.7181 60.8222 87.9028 61.0374C88.0848 61.2513 88.1597 61.5305 88.1139 61.8235C88.0209 62.3999 87.4847 62.8513 86.8917 62.8513ZM61.4459 61.3235C61.1611 61.3235 60.8834 61.5527 60.8403 61.8235C60.8222 61.9347 60.8472 62.0319 60.9097 62.1055C60.9764 62.1833 61.0806 62.2263 61.2028 62.2263H86.8917C87.1764 62.2263 87.4528 61.9972 87.4959 61.7249C87.5139 61.6138 87.4903 61.5166 87.4264 61.443C87.3597 61.3652 87.257 61.3235 87.1347 61.3235H61.4459ZM87.7084 57.7291H62.0195C61.7153 57.7291 61.4347 57.6055 61.25 57.3888C61.0681 57.1749 60.9931 56.8958 61.0389 56.6041C61.1306 56.0277 61.6681 55.5763 62.2625 55.5763H87.9514C88.2542 55.5763 88.5347 55.6999 88.7181 55.9152C88.9014 56.1291 88.9764 56.4097 88.9292 56.7027C88.8375 57.2791 88.3014 57.7291 87.7084 57.7291ZM62.2625 56.2013C61.9778 56.2013 61.7 56.4305 61.657 56.7027C61.6389 56.8124 61.6625 56.9097 61.7264 56.9833C61.7931 57.061 61.8972 57.1041 62.0195 57.1041H87.7084C87.9931 57.1041 88.2695 56.8749 88.3125 56.6041C88.3306 56.4944 88.3056 56.3944 88.2431 56.3208C88.1764 56.243 88.0736 56.2013 87.9514 56.2013H62.2625Z" fill="#F9FAFB"/>
<path d="M39.7514 46.1262L37.1611 62.3679H53.9889L56.5792 46.1262H39.7514ZM54.1556 48.1596L52.2139 60.3332H39.5806L41.5222 48.1596H54.1556Z" fill="#D0D5DD"/>
<path d="M91.5723 37.5181L104.236 51.9542H89.2695L91.5723 37.5181Z" fill="#D0D5DD"/>
<path d="M104.236 52.2666H89.2696C89.1779 52.2666 89.0918 52.2263 89.0321 52.1569C88.9724 52.0875 88.9474 51.9958 88.9613 51.9055L91.264 37.4694C91.2835 37.35 91.3696 37.2513 91.4863 37.218C91.6029 37.1847 91.7279 37.2208 91.8085 37.3125L104.472 51.7486C104.553 51.8402 104.572 51.9722 104.522 52.0833C104.47 52.1958 104.358 52.2666 104.236 52.2666ZM89.6363 51.6416H103.546L91.7752 38.225L89.6363 51.6416Z" fill="#F9FAFB"/>
<path d="M88.6734 55.954C88.4984 55.7485 88.2415 55.636 87.9526 55.636H62.2623C61.697 55.636 61.1845 56.0652 61.0984 56.6138C61.054 56.8888 61.1248 57.1499 61.2956 57.3513C61.4692 57.554 61.7331 57.6707 62.0192 57.6707H87.7081C88.2734 57.6707 88.7831 57.2415 88.8706 56.6943C88.9151 56.4179 88.8442 56.1554 88.6734 55.954Z" fill="#D0D5DD"/>
<path d="M87.1348 60.7583H61.4459C60.8806 60.7583 60.3695 61.1875 60.282 61.7347C60.2376 62.0097 60.3084 62.2722 60.4792 62.4722C60.6528 62.675 60.9153 62.7916 61.2028 62.7916H86.8917C87.457 62.7916 87.9667 62.3625 88.0542 61.8139C88.0987 61.5389 88.0278 61.2764 87.857 61.0764C87.6848 60.8736 87.4209 60.7583 87.1348 60.7583Z" fill="#D0D5DD"/>
<path d="M86.3179 65.8777H60.629C60.0637 65.8777 59.5512 66.3068 59.4651 66.8555C59.4207 67.1305 59.4915 67.3916 59.6623 67.593C59.8359 67.7957 60.0998 67.9124 60.3859 67.9124H86.0748C86.6401 67.9124 87.1498 67.4832 87.2373 66.936C87.2818 66.661 87.2109 66.3985 87.0401 66.1971C86.8637 65.9902 86.6082 65.8777 86.3179 65.8777Z" fill="#D0D5DD"/>
<path d="M115.318 54.196L115.628 56.1308C115.814 57.2905 116.61 58.1988 117.756 58.5572L119.668 59.153L117.565 59.7488C116.307 60.1072 115.221 61.0141 114.664 62.1752L113.738 64.1099L113.427 62.1752C113.24 61.0155 112.445 60.1072 111.299 59.7488L109.388 59.153L111.489 58.5572C112.747 58.1988 113.834 57.2919 114.39 56.1308L115.318 54.196Z" fill="#D0D5DD"/>
<path d="M45.5961 35.0959L45.8336 36.5793C45.9766 37.4682 46.5863 38.1654 47.4655 38.439L48.9322 38.8959L47.3197 39.3543C46.3544 39.6279 45.5224 40.3237 45.0947 41.2126L44.3836 42.6973L44.1461 41.2126C44.003 40.3237 43.3919 39.6279 42.5141 39.3543L41.0488 38.8959L42.6599 38.439C43.6252 38.1654 44.4572 37.4682 44.8849 36.5793L45.5961 35.0959Z" fill="#D0D5DD"/>
<path d="M102.997 100.579L103.129 101.407C103.21 101.902 103.55 102.29 104.039 102.443L104.856 102.699L103.958 102.954C103.42 103.107 102.956 103.496 102.718 103.99L102.322 104.818L102.19 103.99C102.11 103.496 101.771 103.107 101.282 102.954L100.465 102.699L101.364 102.443C101.903 102.29 102.365 101.902 102.603 101.407L102.997 100.579Z" fill="#D0D5DD"/>
<path d="M34.5793 89.6501L34.7113 90.4765C34.7904 90.9724 35.1307 91.3599 35.621 91.5127L36.4376 91.7682L35.5404 92.0238C35.0015 92.1765 34.5376 92.5654 34.3001 93.0613L33.9043 93.8876L33.7724 93.0613C33.6946 92.5654 33.3529 92.1779 32.864 92.0238L32.0474 91.7682L32.9446 91.5127C33.4835 91.3613 33.9474 90.9724 34.1835 90.4765L34.5793 89.6501Z" fill="#D0D5DD"/>
</svg>
