<svg width="64" height="44" viewBox="0 0 64 44" fill="none" xmlns="http://www.w3.org/2000/svg">
<g opacity="0.9">
<rect x="5.18555" y="4.48718" width="58.5846" height="48.1231" rx="4.88205" fill="#C9DBDD" fill-opacity="0.3"/>
<path d="M59.9333 48.7744V6.9282M1 32.7333V6.9282M1 35.1744V40.4051M59.9333 6.9282V6.9282C59.9333 3.65415 57.2792 1 54.0051 1H6.9282C3.65415 1 1 3.65415 1 6.9282V6.9282M59.9333 6.9282H1M7.97436 17.7385H35.8718C37.0273 17.7385 37.9641 16.8017 37.9641 15.6462C37.9641 14.4906 37.0273 13.5538 35.8718 13.5538H7.97436C6.81881 13.5538 5.88205 14.4906 5.88205 15.6462C5.88205 16.8017 6.81881 17.7385 7.97436 17.7385ZM7.97436 28.2H35.8718C37.0273 28.2 37.9641 27.2632 37.9641 26.1077C37.9641 24.9521 37.0273 24.0154 35.8718 24.0154H7.97436C6.81881 24.0154 5.88205 24.9521 5.88205 26.1077C5.88205 27.2632 6.81881 28.2 7.97436 28.2ZM7.97436 38.6615H35.8718C37.0273 38.6615 37.9641 37.7248 37.9641 36.5692C37.9641 35.4137 37.0273 34.4769 35.8718 34.4769H7.97436C6.81881 34.4769 5.88205 35.4137 5.88205 36.5692C5.88205 37.7248 6.81881 38.6615 7.97436 38.6615Z" stroke="#0E7490" stroke-width="1.39487"/>
<path d="M48.7752 16.8579L46.4363 19.1969C46.3487 19.2844 46.2374 19.3281 46.1021 19.3281C45.9669 19.3281 45.8555 19.2844 45.768 19.1969C45.6805 19.1094 45.6367 18.998 45.6367 18.8627C45.6367 18.7275 45.6805 18.6161 45.768 18.5286L48.1069 16.1897L45.768 13.8507C45.6805 13.7632 45.6367 13.6519 45.6367 13.5166C45.6367 13.3814 45.6805 13.27 45.768 13.1825C45.8555 13.095 45.9669 13.0512 46.1021 13.0512C46.2374 13.0512 46.3487 13.095 46.4363 13.1825L48.7752 15.5214L51.1141 13.1825C51.2016 13.095 51.313 13.0512 51.4482 13.0512C51.5835 13.0512 51.6949 13.095 51.7824 13.1825C51.8699 13.27 51.9136 13.3814 51.9136 13.5166C51.9136 13.6519 51.8699 13.7632 51.7824 13.8507L49.4434 16.1897L51.7824 18.5286C51.8699 18.6161 51.9136 18.7275 51.9136 18.8627C51.9136 18.998 51.8699 19.1094 51.7824 19.1969C51.6949 19.2844 51.5835 19.3281 51.4482 19.3281C51.313 19.3281 51.2016 19.2844 51.1141 19.1969L48.7752 16.8579Z" fill="#0E7490"/>
<path fill-rule="evenodd" clip-rule="evenodd" d="M52.4407 23.7326C52.5487 23.8405 52.6093 23.9869 52.6093 24.1396C52.6093 24.2922 52.5487 24.4386 52.4407 24.5466L48.1257 28.8616C48.0687 28.9187 48.001 28.9639 47.9265 28.9948C47.8519 29.0257 47.7721 29.0416 47.6914 29.0416C47.6108 29.0416 47.5309 29.0257 47.4564 28.9948C47.3819 28.9639 47.3142 28.9187 47.2572 28.8616L45.1133 26.7181C45.0583 26.665 45.0144 26.6015 44.9842 26.5313C44.9541 26.461 44.9382 26.3855 44.9375 26.309C44.9369 26.2326 44.9514 26.1568 44.9804 26.086C45.0093 26.0153 45.0521 25.951 45.1061 25.897C45.1602 25.8429 45.2244 25.8002 45.2952 25.7712C45.366 25.7423 45.4418 25.7277 45.5182 25.7284C45.5946 25.729 45.6702 25.7449 45.7404 25.7751C45.8107 25.8053 45.8742 25.8491 45.9273 25.9041L47.6912 27.668L51.6263 23.7326C51.6798 23.6791 51.7433 23.6366 51.8131 23.6077C51.883 23.5787 51.9579 23.5638 52.0335 23.5638C52.1092 23.5638 52.1841 23.5787 52.2539 23.6077C52.3238 23.6366 52.3873 23.6791 52.4407 23.7326Z" fill="#0E7490"/>
<path fill-rule="evenodd" clip-rule="evenodd" d="M52.4407 34.8915C52.5487 34.9995 52.6093 35.1459 52.6093 35.2986C52.6093 35.4512 52.5487 35.5976 52.4407 35.7056L48.1257 40.0206C48.0687 40.0777 48.001 40.1229 47.9265 40.1538C47.8519 40.1846 47.7721 40.2005 47.6914 40.2005C47.6108 40.2005 47.5309 40.1846 47.4564 40.1538C47.3819 40.1229 47.3142 40.0777 47.2572 40.0206L45.1133 37.8771C45.0583 37.824 45.0144 37.7605 44.9842 37.6902C44.9541 37.62 44.9382 37.5445 44.9375 37.468C44.9369 37.3916 44.9514 37.3158 44.9804 37.245C45.0093 37.1743 45.0521 37.11 45.1061 37.0559C45.1602 37.0019 45.2244 36.9591 45.2952 36.9302C45.366 36.9012 45.4418 36.8867 45.5182 36.8873C45.5946 36.888 45.6702 36.9039 45.7404 36.9341C45.8107 36.9642 45.8742 37.0081 45.9273 37.0631L47.6912 38.827L51.6263 34.8915C51.6798 34.838 51.7433 34.7956 51.8131 34.7667C51.883 34.7377 51.9579 34.7228 52.0335 34.7228C52.1092 34.7228 52.1841 34.7377 52.2539 34.7667C52.3238 34.7956 52.3873 34.838 52.4407 34.8915Z" fill="#0E7490"/>
</g>
</svg>
